# xmcd CD database file
#
# Track frame offsets:
#	150
#	18565
#	36762
#
# Disc length: 743 seconds
#
# Revision: 3
# Processed by: cddbd v1.5.2PL0 Copyright (c) Steve Scherf et al.
# Submitted via: CDex 1.70beta2
#
DISCID=1c02e503
DTITLE=Dream5 - Break Out
DYEAR=2014
DGENRE=JPop
TTITLE0=Break Out
TTITLE1=ようかい体操第一
TTITLE2=ハッピーデー(重本ことり)
EXTD=YEAR: 2014
EXTT0=
EXTT1=
EXTT2=
PLAYORDER=
